HIERARCHY
ROOT Hips
{
	OFFSET -3.958830 18.904000 13.208200
	CHANNELS 6 Xposition Yposition Zposition Zrotation Yrotation Xrotation 
	JOINT LHipJoint
	{
		OFFSET 0.000000 0.000000 0.000000
		CHANNELS 3 Zrotation Yrotation Xrotation
		JOINT LeftUpLeg
		{
			OFFSET 1.800000 -1.400000 0.085000
			CHANNELS 3 Zrotation Yrotation Xrotation
			JOINT LeftLeg
			{
				OFFSET 2.215000 -6.000000 0.000000
				CHANNELS 3 Zrotation Yrotation Xrotation
				JOINT LeftFoot
				{
					OFFSET 2.500000 -6.900000 0.000000
					CHANNELS 3 Zrotation Yrotation Xrotation
					JOINT LeftToeBase
					{
						OFFSET 0.200000 -0.500000 1.950000
						CHANNELS 3 Zrotation Yrotation Xrotation
						End Site
						{
							OFFSET 0.000000 0.000000 0.000000
						}
					}
				}
			}
		}
	}
	JOINT RHipJoint
	{
		OFFSET 0.000000 0.000000 0.000000
		CHANNELS 3 Zrotation Yrotation Xrotation
		JOINT RightUpLeg
		{
			OFFSET -1.800000 -1.400000 0.085000
			CHANNELS 3 Zrotation Yrotation Xrotation
			JOINT RightLeg
			{
				OFFSET -2.215000 -6.000000 0.000000
				CHANNELS 3 Zrotation Yrotation Xrotation
				JOINT RightFoot
				{
					OFFSET -2.500000 -6.900000 0.000000
					CHANNELS 3 Zrotation Yrotation Xrotation
					JOINT RightToeBase
					{
						OFFSET -0.200000 -0.500000 1.950000
						CHANNELS 3 Zrotation Yrotation Xrotation
						End Site
						{
							OFFSET 0.000000 0.000000 0.000000
						}
					}
				}
			}
		}
	}
	JOINT LowerBack
	{
		OFFSET 0.000000 0.000000 0.000000
		CHANNELS 3 Zrotation Yrotation Xrotation
		JOINT Spine
		{
			OFFSET -0.087000 1.940000 -0.288900
			CHANNELS 3 Zrotation Yrotation Xrotation
			JOINT Spine1
			{
				OFFSET 0.000000 1.950000 0.060000
				CHANNELS 3 Zrotation Yrotation Xrotation
				JOINT Neck
				{
					OFFSET 0.000000 0.000000 0.000000
					CHANNELS 3 Zrotation Yrotation Xrotation
					JOINT Neck1
					{
						OFFSET 0.000000 1.600000 0.340000
						CHANNELS 3 Zrotation Yrotation Xrotation
						JOINT Head
						{
							OFFSET 0.000000 1.667000 -0.240000
							CHANNELS 3 Zrotation Yrotation Xrotation
							End Site
							{
								OFFSET 0.000000 0.000000 0.000000
							}
						}
					}
				}
				JOINT LeftShoulder
				{
					OFFSET 0.000000 0.000000 0.000000
					CHANNELS 3 Zrotation Yrotation Xrotation
					JOINT LeftArm
					{
						OFFSET 2.700000 1.550000 -0.730000
						CHANNELS 3 Zrotation Yrotation Xrotation
						JOINT LeftForeArm
						{
							OFFSET 5.450000 0.000000 0.000000
							CHANNELS 3 Zrotation Yrotation Xrotation
							JOINT LeftHand
							{
								OFFSET 3.450000 0.000000 0.000000
								CHANNELS 3 Zrotation Yrotation Xrotation
								JOINT LeftHandIndex1
								{
									OFFSET 0.750000 0.000000 0.000000
									CHANNELS 3 Zrotation Yrotation Xrotation
									End Site
									{
										OFFSET 0.000000 0.000000 0.000000
									}
								}
							}
						}
					}
				}
				JOINT RightShoulder
				{
					OFFSET 0.000000 0.000000 0.000000
					CHANNELS 3 Zrotation Yrotation Xrotation
					JOINT RightArm
					{
						OFFSET -2.700000 1.550000 -0.730000
						CHANNELS 3 Zrotation Yrotation Xrotation
						JOINT RightForeArm
						{
							OFFSET -5.450000 0.000000 0.000000
							CHANNELS 3 Zrotation Yrotation Xrotation
							JOINT RightHand
							{
								OFFSET -3.450000 0.000000 0.000000
								CHANNELS 3 Zrotation Yrotation Xrotation
								JOINT RightHandIndex1
								{
									OFFSET -0.750000 0.000000 0.000000
									CHANNELS 3 Zrotation Yrotation Xrotation
									End Site
									{
										OFFSET 0.000000 0.000000 0.000000
									}
								}
							}
						}
					}
				}
			}
		}
	}
}
MOTION
Frames: 11
Frame Time: 0.016667
-0.445600 17.378430 -2.393380 17.901617 6.180445 -21.284944 -16.124828 12.132231 6.583901 -8.407767 -10.363121 -70.715666 6.522139 8.833118 54.286856 0.918980 8.900747 1.438279 0.196440 -0.058810 0.169570 17.576595 -9.338497 1.237686 -24.208603 3.487131 7.357212 4.230837 -6.545879 16.344494 -0.669837 -5.067920 2.628422 -0.327130 0.020440 0.278440 -1.415927 -4.484562 -8.958132 -6.740281 15.684633 66.233949 -3.168904 16.704710 -3.702929 9.229507 -2.290586 -14.642711 -2.557673 -5.238543 44.439798 -4.388320 -4.456780 -19.925870 -26.569522 -6.492050 2.256667 -43.582130 19.990802 -14.316279 -14.352797 -10.939277 -1.377044 -3.241690 2.933134 0.508800 -0.267030 0.284010 0.187190 6.391052 27.157061 10.792770 18.151456 18.816466 -14.698847 -145.497566 -9.150946 -10.056964 2.497154 -2.504844 0.129450 0.086280 -0.041840 0.057150 
-0.399180 17.516330 -2.391580 17.760110 5.415958 -22.065447 -16.106349 12.124641 6.574895 -6.335098 -9.737612 -69.498557 4.824481 11.389690 61.588208 1.268595 10.566396 0.935498 0.198540 -0.065160 0.212670 17.595724 -9.412329 1.165346 -24.153378 3.271452 6.727563 3.561649 -6.436194 17.049378 -0.675321 -4.975523 2.653609 -0.339300 -0.024970 0.269830 -1.471591 -4.325325 -8.957223 -6.222585 15.863390 66.882193 -2.635475 17.230841 -3.541946 8.351257 -1.254566 -14.239457 -0.918271 -6.072725 45.296303 -4.834540 -4.612580 -21.427630 -26.004374 -6.270927 2.544829 -43.028758 20.833291 -14.971775 -18.064731 -11.158964 -1.541165 -3.205704 2.905150 0.546420 -0.294830 0.312840 0.159000 7.547665 25.491029 10.710307 21.287446 17.249119 -14.492174 -144.468395 -4.698729 -24.222813 2.400173 -2.324527 0.126290 0.086750 -0.046270 0.028900 
-0.345640 17.668550 -2.399480 17.365036 4.098283 -22.497767 -16.061001 12.165733 6.520699 -4.385893 -8.849161 -67.198645 2.556426 14.592305 67.298717 1.618597 12.030498 0.518967 0.214070 -0.059340 0.268220 17.620978 -9.578789 1.057869 -23.984681 3.205103 4.329999 3.268577 -6.339325 19.264341 -0.647502 -4.830794 2.674901 -0.343160 -0.080570 0.267870 -1.573596 -4.059536 -8.914154 -5.406353 15.770260 66.962730 -2.051783 17.494328 -2.780425 7.469474 -0.576001 -13.965707 0.219080 -6.529969 46.194263 -5.086690 -4.852640 -22.835790 -25.221625 -6.138125 2.723433 -43.079726 20.974576 -15.772561 -22.885782 -10.907050 -1.848312 -3.174148 2.891620 0.580160 -0.325070 0.345290 0.128040 8.559141 24.215889 10.868234 25.124965 15.759078 -14.437569 -142.927382 1.823434 -44.503763 2.308979 -2.068876 0.131870 0.075320 -0.057750 -0.000870 
-0.285600 17.819530 -2.415850 16.478450 3.025925 -22.588653 -16.013753 12.232305 6.482210 -3.088823 -8.500758 -64.380102 1.275831 17.275808 72.122568 1.973080 13.210329 0.217097 0.233710 -0.032530 0.320180 17.646314 -9.748760 0.949794 -23.303319 3.318748 0.938306 3.179170 -6.258720 22.794752 -0.623493 -4.716193 2.679795 -0.346360 -0.138890 0.270230 -1.673211 -3.825354 -8.877056 -4.319888 15.022536 67.154682 -1.541716 17.196534 -2.443412 6.648975 0.000262 -14.093844 1.454380 -6.819471 46.919377 -5.930630 -4.701500 -23.611760 -23.953704 -6.313452 3.227689 -43.776766 21.635332 -17.054697 -29.006577 -10.839246 -2.221708 -3.136691 2.899953 0.595860 -0.354050 0.391560 0.111090 8.965661 23.437711 11.111964 29.660228 14.623892 -14.793132 -141.560309 8.703530 -63.854775 2.297416 -1.819714 0.154910 0.058040 -0.085780 -0.013460 
-0.230490 17.963590 -2.440640 15.353964 1.564042 -22.732396 -15.948561 12.417261 6.328423 -2.304431 -7.824818 -60.555747 0.989112 19.284335 75.832379 2.249092 14.055832 0.000509 0.258360 -0.004510 0.354820 17.670220 -9.917551 0.931218 -22.028466 4.002098 -3.277913 3.040633 -6.147878 27.857914 -0.626135 -4.739342 2.636559 -0.354980 -0.204850 0.274750 -1.789435 -3.659608 -8.845264 -3.011059 14.037499 67.791022 -1.145380 16.895436 -3.013543 5.737060 -0.188136 -14.546968 1.314020 -6.461564 49.034277 -6.169010 -4.944630 -24.229860 -22.276612 -6.665914 3.909173 -45.143068 22.568196 -18.603623 -36.266201 -10.329664 -2.861078 -3.104044 2.918583 0.626080 -0.395170 0.438530 0.093760 9.298664 23.488845 11.380878 34.597042 13.369319 -16.016919 -140.533150 15.254317 -79.963712 2.332145 -1.612729 0.187020 0.032580 -0.102980 -0.024620 
-0.170340 18.093470 -2.472880 13.727372 -0.281342 -22.750513 -15.877038 12.634979 6.055029 -1.130025 -6.529233 -56.094810 0.533736 21.020152 77.790339 2.471119 14.552082 -0.128497 0.311200 0.065130 0.396850 17.704820 -9.932455 1.127568 -20.132695 5.719807 -8.208506 3.581722 -6.259124 34.375902 -0.711551 -5.080481 2.471049 -0.351850 -0.287880 0.284610 -1.915775 -3.614818 -8.870513 -1.244307 12.503510 68.775698 -0.904580 16.284566 -4.149554 4.900956 -1.299895 -15.116425 -0.564613 -5.251873 51.564865 -6.055610 -5.303900 -24.696180 -20.955312 -7.025695 4.656205 -46.377548 24.241581 -20.312835 -44.485546 -9.600119 -3.807367 -3.043096 2.982452 0.638140 -0.453250 0.500640 0.088000 9.930577 24.267384 11.537223 38.653005 12.428253 -17.720431 -139.138952 21.644672 -91.991932 2.418949 -1.479388 0.250600 -0.010520 -0.143820 -0.015750 
-0.115680 18.199350 -2.508500 11.251812 -1.570074 -22.193066 -15.798313 12.816410 5.620176 -0.256041 -5.235906 -51.128494 0.868998 21.017323 77.404831 2.515362 14.390969 -0.099617 0.374450 0.155230 0.427460 17.766902 -9.718248 1.669213 -17.723281 8.458122 -13.726864 5.357562 -7.115711 41.609448 -0.913085 -5.850262 2.182290 -0.333970 -0.352820 0.295450 -2.084185 -3.673599 -8.961201 1.504451 9.834776 69.289080 -0.820098 15.032847 -5.000329 4.262525 -2.891811 -15.802432 -3.710343 -3.589613 54.081467 -5.928850 -6.034770 -24.782730 -19.994591 -7.958607 5.536283 -47.191294 25.717000 -21.800050 -53.238625 -8.196810 -5.376314 -2.990052 3.054530 0.639560 -0.503030 0.563070 0.103470 10.645726 25.580983 11.687242 41.953468 11.610773 -19.751158 -137.304323 27.824579 -100.555528 2.511740 -1.377371 0.316260 -0.035490 -0.190860 0.010570 
-0.060060 18.274980 -2.546040 8.165972 -1.965477 -21.395027 -15.734685 12.971650 5.009528 0.440720 -4.079877 -45.682767 1.883717 19.378022 74.907364 2.383077 13.640435 0.060724 0.427660 0.228500 0.446010 17.843330 -9.231463 2.531078 -16.287958 11.972369 -19.469817 9.356052 -9.566441 48.445503 -1.234859 -7.080934 1.762190 -0.318930 -0.407160 0.302120 -2.256485 -3.976973 -9.104958 4.726909 6.378786 69.805622 -0.640220 13.111797 -5.651764 3.789181 -4.757735 -16.397668 -7.800665 -1.328274 55.442004 -5.128610 -6.646150 -25.096710 -19.373606 -9.052370 6.532539 -48.073751 27.289417 -23.392852 -62.115578 -7.441485 -7.038308 -2.943532 3.147295 0.639140 -0.547310 0.604010 0.106910 11.377869 26.834473 11.606070 44.146006 11.076896 -21.716215 -134.685404 33.963193 -105.601839 2.597931 -1.286878 0.373800 -0.062800 -0.219410 0.030550 
0.003590 18.316990 -2.579560 4.176533 -1.551004 -20.599110 -15.668442 13.110917 4.251589 1.689946 -2.806891 -39.880122 3.216479 16.600711 70.247807 2.109577 12.402174 0.372484 0.466600 0.278010 0.449280 17.946546 -8.604959 3.596219 -15.985296 15.846696 -25.505405 15.370894 -13.776662 54.031430 -1.672665 -8.634050 1.291547 -0.305580 -0.425860 0.301020 -2.474403 -4.389004 -9.240212 9.240982 1.536019 70.127126 -1.060099 10.440814 -5.687823 3.702021 -6.757832 -17.075504 -12.361932 1.132509 55.225950 -4.326360 -7.125830 -25.260940 -18.895023 -10.490898 7.617919 -48.948643 28.487323 -24.893764 -70.584489 -7.357169 -8.545856 -2.899221 3.228160 0.638570 -0.576150 0.625230 0.127060 11.389231 28.232680 11.559419 45.940491 11.308050 -23.466477 -131.191340 38.828586 -106.439165 2.671316 -1.180201 0.405360 -0.064550 -0.244100 0.053930 
0.071690 18.323190 -2.608720 -0.232372 -0.364919 -20.167052 -15.591287 13.249683 3.427478 3.615927 -1.537905 -33.852718 4.432100 13.563195 63.936175 1.756023 10.904329 0.784976 0.481450 0.299470 0.438110 18.065848 -8.024864 4.651813 -17.488177 19.187251 -31.746987 23.204081 -19.594149 57.441249 -2.167610 -10.311473 0.829792 -0.294900 -0.419430 0.290990 -2.729462 -4.769150 -9.290081 14.744356 -4.211842 69.928860 -1.935219 7.122694 -4.711022 3.837314 -8.543045 -17.672550 -16.382701 3.002338 53.137486 -3.700740 -7.474180 -25.349560 -17.907894 -12.102412 8.728036 -49.817795 28.697387 -25.962506 -78.505582 -8.147475 -9.320936 -2.865657 3.301591 0.629870 -0.585780 0.620410 0.141400 10.271247 29.470725 11.526237 47.751109 12.265772 -25.224304 -126.407199 43.281625 -104.331343 2.743548 -1.016426 0.413420 -0.053810 -0.252770 0.071820 
0.154480 18.290800 -2.631650 -4.903941 0.596664 -20.022404 -15.465642 13.315870 2.600544 6.696007 -0.071701 -27.943187 4.991176 11.159493 56.604329 1.396691 9.386239 1.236603 0.505470 0.334690 0.440440 18.226109 -7.667273 5.578381 -20.320296 21.474234 -38.255143 32.183886 -26.196058 58.392028 -2.653643 -11.807667 0.457891 -0.270430 -0.402010 0.292010 -3.103003 -4.741831 -9.224574 21.387764 -10.567855 68.332950 -3.874589 3.313671 -2.125789 4.204757 -9.599590 -18.023463 -18.559670 4.064140 49.826350 -3.674350 -7.187440 -25.398450 -16.259656 -14.275057 9.940572 -50.054714 27.756347 -26.415359 -86.064529 -9.149338 -9.775273 -2.843072 3.375856 0.608600 -0.574980 0.615150 0.161550 7.879761 30.513015 11.447652 49.890608 14.571537 -26.911465 -119.922606 47.829340 -99.486279 2.814215 -0.775407 0.420530 -0.039080 -0.267670 0.088100 
